<svg width="30" height="26" viewBox="0 0 30 26" fill="none" xmlns="http://www.w3.org/2000/svg">
<path d="M27.6015 0.349609H2.90293C1.78941 0.349609 0.886719 1.23726 0.886719 2.33222V5.30614C0.886719 6.40111 1.78941 7.28876 2.90293 7.28876H27.6015C28.715 7.28876 29.6177 6.40111 29.6177 5.30614V2.33222C29.6177 1.23726 28.715 0.349609 27.6015 0.349609Z" fill="#F1F7E4"/>
<path d="M11.8403 18.9141C11.723 18.9141 11.6095 18.873 11.5202 18.7981L8.31851 16.1176C8.26397 16.0719 8.22016 16.0151 8.19012 15.9511C8.16009 15.8872 8.14453 15.8176 8.14453 15.7471C8.14453 15.6766 8.16009 15.607 8.19012 15.543C8.22016 15.4791 8.26397 15.4223 8.31851 15.3766L11.5202 12.6961C11.5697 12.6547 11.627 12.6233 11.6887 12.6037C11.7505 12.584 11.8157 12.5765 11.8804 12.5816C11.9451 12.5867 12.0082 12.6043 12.066 12.6334C12.1238 12.6625 12.1753 12.7025 12.2174 12.7511C12.2595 12.7997 12.2914 12.856 12.3114 12.9168C12.3313 12.9776 12.3389 13.0416 12.3338 13.1053C12.3286 13.1689 12.3107 13.2309 12.2811 13.2878C12.2515 13.3446 12.2108 13.3952 12.1614 13.4366L9.40222 15.7468L12.1614 18.0571C12.2384 18.1217 12.2934 18.208 12.319 18.3042C12.3446 18.4005 12.3396 18.5022 12.3046 18.5956C12.2696 18.689 12.2063 18.7696 12.1233 18.8265C12.0403 18.8835 11.9415 18.914 11.8403 18.9141Z" fill="#82BC00"/>
<path d="M18.1601 18.9131C18.0588 18.913 17.9601 18.8825 17.8771 18.8256C17.7941 18.7686 17.7308 18.688 17.6958 18.5946C17.6608 18.5012 17.6558 18.3995 17.6814 18.3033C17.707 18.207 17.762 18.1207 17.839 18.0561L20.5981 15.7459L17.839 13.4356C17.7895 13.3942 17.7489 13.3437 17.7193 13.2868C17.6897 13.23 17.6718 13.1679 17.6666 13.1043C17.6614 13.0406 17.669 12.9766 17.689 12.9158C17.709 12.8551 17.7409 12.7988 17.783 12.7501C17.8251 12.7015 17.8765 12.6615 17.9344 12.6324C17.9922 12.6034 18.0553 12.5858 18.12 12.5807C18.1847 12.5756 18.2498 12.583 18.3116 12.6027C18.3734 12.6223 18.4307 12.6537 18.4801 12.6951L21.6819 15.3756C21.7364 15.4213 21.7802 15.4781 21.8102 15.5421C21.8403 15.606 21.8558 15.6757 21.8558 15.7461C21.8558 15.8166 21.8403 15.8862 21.8102 15.9502C21.7802 16.0141 21.7364 16.0709 21.6819 16.1166L18.4801 18.7971C18.3909 18.872 18.2774 18.9131 18.1601 18.9131Z" fill="#82BC00"/>
<path d="M13.8665 20.9249C13.8327 20.9248 13.7989 20.9213 13.7657 20.9145C13.6373 20.8878 13.525 20.8121 13.4533 20.704C13.3817 20.5959 13.3566 20.4643 13.3837 20.338L15.3792 11.0222C15.39 10.9574 15.414 10.8954 15.4498 10.84C15.4857 10.7846 15.5325 10.7368 15.5876 10.6997C15.6426 10.6625 15.7048 10.6367 15.7702 10.6238C15.8357 10.6109 15.9032 10.6111 15.9686 10.6245C16.0339 10.6379 16.0959 10.6641 16.1507 10.7017C16.2055 10.7392 16.252 10.7873 16.2874 10.843C16.3228 10.8987 16.3463 10.9608 16.3567 11.0257C16.367 11.0906 16.3639 11.1568 16.3475 11.2205L14.3519 20.5368C14.3288 20.6466 14.2679 20.7451 14.1795 20.8158C14.0911 20.8865 13.9805 20.9251 13.8665 20.9249Z" fill="#82BC00"/>
<path d="M26.6618 26H3.33783C2.4571 25.9988 1.61278 25.6543 0.990003 25.0419C0.367228 24.4295 0.0168252 23.5992 0.015625 22.7331L0.015625 3.26685C0.0168252 2.40079 0.367228 1.57054 0.990003 0.958142C1.61278 0.345744 2.4571 0.00118019 3.33783 0L26.6618 0C27.5426 0.00118019 28.3869 0.345744 29.0097 0.958142C29.6324 1.57054 29.9828 2.40079 29.984 3.26685V22.7331C29.9828 23.5992 29.6324 24.4295 29.0097 25.0419C28.3869 25.6543 27.5426 25.9988 26.6618 26ZM3.33783 0.972968C2.71935 0.973624 2.12639 1.21551 1.68906 1.64556C1.25173 2.0756 1.00575 2.65868 1.00508 3.26685V22.7331C1.00588 23.3412 1.25185 23.924 1.68906 24.3539C2.12627 24.7839 2.71902 25.0257 3.33733 25.0265H26.6618C27.2801 25.0257 27.8729 24.7839 28.3101 24.3539C28.7473 23.924 28.9933 23.3412 28.9941 22.7331V3.26685C28.9933 2.65885 28.7473 2.07597 28.3101 1.64605C27.8729 1.21613 27.2801 0.97425 26.6618 0.973463L3.33783 0.972968Z" fill="#82BC00"/>
<path d="M29.4892 7.7906H0.510772C0.444475 7.79268 0.378429 7.78164 0.316557 7.75813C0.254686 7.73461 0.198251 7.69912 0.150605 7.65374C0.10296 7.60836 0.0650757 7.55402 0.0392038 7.49396C0.0133319 7.4339 0 7.36934 0 7.30412C0 7.23889 0.0133319 7.17433 0.0392038 7.11427C0.0650757 7.05421 0.10296 6.99988 0.150605 6.9545C0.198251 6.90912 0.254686 6.87362 0.316557 6.85011C0.378429 6.82659 0.444475 6.81555 0.510772 6.81763H29.4892C29.5555 6.81555 29.6216 6.82659 29.6834 6.85011C29.7453 6.87362 29.8018 6.90912 29.8494 6.9545C29.897 6.99988 29.9349 7.05421 29.9608 7.11427C29.9867 7.17433 30 7.23889 30 7.30412C30 7.36934 29.9867 7.4339 29.9608 7.49396C29.9349 7.55402 29.897 7.60836 29.8494 7.65374C29.8018 7.69912 29.7453 7.73461 29.6834 7.75813C29.6216 7.78164 29.5555 7.79268 29.4892 7.7906Z" fill="#82BC00"/>
<path d="M4.16345 5.30639C4.8594 5.30639 5.42358 4.75161 5.42358 4.06726C5.42358 3.3829 4.8594 2.82812 4.16345 2.82812C3.4675 2.82812 2.90332 3.3829 2.90332 4.06726C2.90332 4.75161 3.4675 5.30639 4.16345 5.30639Z" fill="#82BC00"/>
<path d="M8.19568 5.30639C8.89163 5.30639 9.45581 4.75161 9.45581 4.06726C9.45581 3.3829 8.89163 2.82812 8.19568 2.82812C7.49973 2.82812 6.93555 3.3829 6.93555 4.06726C6.93555 4.75161 7.49973 5.30639 8.19568 5.30639Z" fill="#82BC00"/>
</svg>
