<svg width="17" height="27" viewBox="0 0 17 27" fill="none" xmlns="http://www.w3.org/2000/svg">
<path d="M9.32812 13.5016C9.32812 11.4836 11.0467 9.84668 13.1643 9.84668C15.2838 9.84668 17 11.4841 17 13.5016C17 15.5247 15.2834 17.163 13.1643 17.163C11.0467 17.163 9.32812 15.5247 9.32812 13.5016Z" fill="#82BC00"/>
<path d="M13.1643 17.8066C14.9387 17.8066 16.3774 19.1794 16.3774 20.8714L15.2629 26.9995H11.0672L9.95215 20.8714C9.95215 19.1799 11.3923 17.8066 13.1643 17.8066Z" fill="#82BC00"/>
<path d="M9.38086 11.2034C8.41597 12.6235 6.42612 13.0268 4.93684 12.1037L0.15625 7.87446L2.44166 4.52051L8.43694 6.9664C9.92432 7.8881 10.3477 9.78561 9.38086 11.2034Z" fill="#82BC00"/>
<path d="M9.22318 15.6521C8.25638 14.2357 6.26606 13.8314 4.77868 14.754L0 18.9824L2.28351 22.34L8.27879 19.8918C9.76474 18.971 10.1881 17.0731 9.22318 15.6521Z" fill="#82BC00"/>
<path d="M13.1643 9.19335C14.9387 9.19335 16.3774 7.82285 16.3774 6.13087L15.2629 0H11.0672L9.95215 6.13087C9.95215 7.8224 11.3923 9.19335 13.1643 9.19335Z" fill="#82BC00"/>
</svg>
